<svg version="1.1" id="Layer_1" xmlns="http://www.w3.org/2000/svg" xmlns:xlink="http://www.w3.org/1999/xlink" x="0px" y="0px"
	 width="100%" viewBox="0 0 500 500" enable-background="new 0 0 500 500" xml:space="preserve">
<path fill="#010101" opacity="1.000000" stroke="none" 
	d="
M501.000000,172.000000 
	C501.000000,281.999969 501.000000,391.499939 501.000000,500.999939 
	C334.333405,500.999939 167.666794,500.999939 1.000148,500.999969 
	C1.000099,334.333435 1.000099,167.666885 1.000049,1.000238 
	C167.666519,1.000158 334.333038,1.000158 500.999786,1.000079 
	C501.000000,57.833332 501.000000,114.666664 501.000000,172.000000 
M404.003815,149.106201 
	C410.093872,143.012848 417.484924,137.751694 422.019165,130.663162 
	C433.564117,112.614632 443.886780,93.780640 454.548401,75.174934 
	C456.021515,72.604195 456.643463,69.545708 457.659454,66.713036 
	C457.259338,66.487427 456.859192,66.261826 456.459076,66.036224 
	C449.681122,71.852760 442.974854,77.756035 436.091003,83.444366 
	C433.223785,85.813614 431.888855,88.183044 432.001678,92.223999 
	C432.101624,95.804283 430.614014,99.718163 428.900757,103.001312 
	C424.982391,110.510216 420.442780,117.692436 416.257629,125.065300 
	C411.758331,132.991531 407.375702,140.983978 402.462494,149.058762 
	C402.501801,149.309937 402.541107,149.561127 402.580383,149.812302 
	C402.846313,149.654495 403.112274,149.496689 404.003815,149.106201 
M156.137894,59.441189 
	C199.824982,34.351002 246.671616,23.644159 296.983093,28.004116 
	C347.379791,32.371452 390.763123,53.567272 431.847473,82.380821 
	C437.902008,77.145714 444.789612,71.133537 451.741974,65.197243 
	C457.109711,60.613968 457.128235,58.817944 451.509857,54.207840 
	C450.359650,53.264088 449.064880,52.479626 447.777161,51.723125 
	C438.602264,46.333096 429.456543,40.891300 420.218353,35.611588 
	C389.418182,18.009022 356.314545,7.615985 320.936768,5.187473 
	C270.640961,1.734910 223.801208,13.145652 180.920456,39.769936 
	C171.795425,45.435585 163.505066,52.445557 154.230469,59.071255 
	C154.650345,59.291000 155.070236,59.510746 156.137894,59.441189 
M411.995453,402.510071 
	C406.161469,392.478851 400.329468,382.446503 394.492950,372.416748 
	C388.213318,361.625427 380.462524,359.613434 369.506165,365.946259 
	C361.473572,370.589172 353.436951,375.225372 345.430664,379.913300 
	C315.424835,397.482422 283.113647,403.507721 249.163483,396.698425 
	C172.665024,381.355255 126.182320,305.996948 143.815613,232.577957 
	C162.640030,154.199432 246.358154,108.692314 321.755310,137.319138 
	C338.531586,143.688766 353.926697,153.760803 369.804504,162.409454 
	C380.476105,168.222321 388.106384,166.515045 394.143677,156.140915 
	C404.730347,137.949463 415.273560,119.732437 425.761108,101.483673 
	C431.509186,91.481819 429.327484,83.488701 419.316925,77.618568 
	C410.595978,72.504662 401.837708,67.453171 393.053467,62.448635 
	C338.713379,31.490093 280.861786,22.942884 220.181229,37.346947 
	C171.663635,48.863831 130.642944,73.923958 98.444954,112.136925 
	C49.886669,169.766525 32.603535,236.181259 46.764774,310.110474 
	C56.738583,362.179108 82.298637,406.150726 122.897270,440.185638 
	C190.750473,497.068756 267.583649,511.119232 351.879883,484.462494 
	C376.988708,476.522369 399.002106,462.290894 421.439331,449.033173 
	C428.976410,444.579620 430.849457,435.634125 426.465210,427.712372 
	C421.893494,419.451843 417.036957,411.348938 411.995453,402.510071 
M179.414917,173.918808 
	C150.005707,206.352631 138.496552,244.258102 145.934296,287.375092 
	C159.785110,367.668701 245.050934,416.472046 321.043488,387.145782 
	C337.653351,380.735840 352.804077,370.562927 368.693207,362.249969 
	C371.442474,360.811554 374.600098,358.941071 377.438080,359.139923 
	C383.151886,359.540314 386.763733,356.870880 390.321167,353.181732 
	C392.742645,350.670593 395.507660,348.493805 398.069122,346.113800 
	C401.368958,343.047607 404.618896,339.927704 407.890350,336.830994 
	C407.660492,336.491669 407.430634,336.152344 407.200775,335.813049 
	C404.479645,336.923462 401.610382,337.768982 399.064270,339.192474 
	C390.356659,344.060974 381.743195,349.099396 373.128723,354.132751 
	C345.234009,370.431427 315.169312,376.684906 283.338623,371.651855 
	C190.582748,356.985321 141.038925,257.305420 184.836212,174.140930 
	C186.218445,171.516296 187.604980,168.893951 188.989517,166.270538 
	C188.639481,166.014923 188.289429,165.759293 187.939392,165.503677 
	C185.255447,168.131531 182.571487,170.759369 179.414917,173.918808 
M456.268799,415.320709 
	C458.032745,410.268707 457.237640,405.562164 454.579895,400.988159 
	C443.727142,382.310486 433.042633,363.533661 422.013855,344.960999 
	C420.099976,341.738068 416.822327,339.324982 413.939209,336.290070 
	C404.722870,344.805237 396.348877,352.542145 388.707703,359.601990 
	C392.096985,363.886749 395.605682,367.454437 398.099091,371.628540 
	C407.643036,387.605804 416.813782,403.805511 426.224792,419.862976 
	C429.657990,425.720886 433.320831,431.431549 432.028839,439.894653 
	C437.248962,435.194366 441.669006,431.501862 445.742859,427.460449 
	C449.365356,423.866821 452.604126,419.886414 456.268799,415.320709 
z"/>
<path fill="#FEFEFE" opacity="1.000000" stroke="none" 
	d="
M412.150208,402.843567 
	C417.036957,411.348938 421.893494,419.451843 426.465210,427.712372 
	C430.849457,435.634125 428.976410,444.579620 421.439331,449.033173 
	C399.002106,462.290894 376.988708,476.522369 351.879883,484.462494 
	C267.583649,511.119232 190.750473,497.068756 122.897270,440.185638 
	C82.298637,406.150726 56.738583,362.179108 46.764774,310.110474 
	C32.603535,236.181259 49.886669,169.766525 98.444954,112.136925 
	C130.642944,73.923958 171.663635,48.863831 220.181229,37.346947 
	C280.861786,22.942884 338.713379,31.490093 393.053467,62.448635 
	C401.837708,67.453171 410.595978,72.504662 419.316925,77.618568 
	C429.327484,83.488701 431.509186,91.481819 425.761108,101.483673 
	C415.273560,119.732437 404.730347,137.949463 394.143677,156.140915 
	C388.106384,166.515045 380.476105,168.222321 369.804504,162.409454 
	C353.926697,153.760803 338.531586,143.688766 321.755310,137.319138 
	C246.358154,108.692314 162.640030,154.199432 143.815613,232.577957 
	C126.182320,305.996948 172.665024,381.355255 249.163483,396.698425 
	C283.113647,403.507721 315.424835,397.482422 345.430664,379.913300 
	C353.436951,375.225372 361.473572,370.589172 369.506165,365.946259 
	C380.462524,359.613434 388.213318,361.625427 394.492950,372.416748 
	C400.329468,382.446503 406.161469,392.478851 412.150208,402.843567 
z"/>
<path fill="#F98E80" opacity="1.000000" stroke="none" 
	d="
M179.651230,173.653015 
	C182.571487,170.759369 185.255447,168.131531 187.939392,165.503677 
	C188.289429,165.759293 188.639481,166.014923 188.989517,166.270538 
	C187.604980,168.893951 186.218445,171.516296 184.836212,174.140930 
	C141.038925,257.305420 190.582748,356.985321 283.338623,371.651855 
	C315.169312,376.684906 345.234009,370.431427 373.128723,354.132751 
	C381.743195,349.099396 390.356659,344.060974 399.064270,339.192474 
	C401.610382,337.768982 404.479645,336.923462 407.200775,335.813049 
	C407.430634,336.152344 407.660492,336.491669 407.890350,336.830994 
	C404.618896,339.927704 401.368958,343.047607 398.069122,346.113800 
	C395.507660,348.493805 392.742645,350.670593 390.321167,353.181732 
	C386.763733,356.870880 383.151886,359.540314 377.438080,359.139923 
	C374.600098,358.941071 371.442474,360.811554 368.693207,362.249969 
	C352.804077,370.562927 337.653351,380.735840 321.043488,387.145782 
	C245.050934,416.472046 159.785110,367.668701 145.934296,287.375092 
	C138.496552,244.258102 150.005707,206.352631 179.651230,173.653015 
z"/>
<path fill="#F98E80" opacity="1.000000" stroke="none" 
	d="
M154.830170,58.836182 
	C163.505066,52.445557 171.795425,45.435585 180.920456,39.769936 
	C223.801208,13.145652 270.640961,1.734910 320.936768,5.187473 
	C356.314545,7.615985 389.418182,18.009022 420.218353,35.611588 
	C429.456543,40.891300 438.602264,46.333096 447.777161,51.723125 
	C449.064880,52.479626 450.359650,53.264088 451.509857,54.207840 
	C457.128235,58.817944 457.109711,60.613968 451.741974,65.197243 
	C444.789612,71.133537 437.902008,77.145714 431.847473,82.380821 
	C390.763123,53.567272 347.379791,32.371452 296.983093,28.004116 
	C246.671616,23.644159 199.824982,34.351002 155.662384,59.352406 
	C155.067963,59.121140 154.949066,58.978661 154.830170,58.836182 
z"/>
<path fill="#FA8F80" opacity="1.000000" stroke="none" 
	d="
M456.140533,415.698730 
	C452.604126,419.886414 449.365356,423.866821 445.742859,427.460449 
	C441.669006,431.501862 437.248962,435.194366 432.028839,439.894653 
	C433.320831,431.431549 429.657990,425.720886 426.224792,419.862976 
	C416.813782,403.805511 407.643036,387.605804 398.099091,371.628540 
	C395.605682,367.454437 392.096985,363.886749 388.707703,359.601990 
	C396.348877,352.542145 404.722870,344.805237 413.939209,336.290070 
	C416.822327,339.324982 420.099976,341.738068 422.013855,344.960999 
	C433.042633,363.533661 443.727142,382.310486 454.579895,400.988159 
	C457.237640,405.562164 458.032745,410.268707 456.140533,415.698730 
z"/>
<path fill="#F48B7D" opacity="1.000000" stroke="none" 
	d="
M402.942200,148.947540 
	C407.375702,140.983978 411.758331,132.991531 416.257629,125.065300 
	C420.442780,117.692436 424.982391,110.510216 428.900757,103.001312 
	C430.614014,99.718163 432.101624,95.804283 432.001678,92.223999 
	C431.888855,88.183044 433.223785,85.813614 436.091003,83.444366 
	C442.974854,77.756035 449.681122,71.852760 456.459076,66.036224 
	C456.859192,66.261826 457.259338,66.487427 457.659454,66.713036 
	C456.643463,69.545708 456.021515,72.604195 454.548401,75.174934 
	C443.886780,93.780640 433.564117,112.614632 422.019165,130.663162 
	C417.484924,137.751694 410.093872,143.012848 403.581543,149.125183 
	C403.159302,149.144180 402.942169,148.947525 402.942200,148.947540 
z"/>
<path fill="#F98E80" opacity="1.000000" stroke="none" 
	d="
M155.338486,59.497059 
	C155.070236,59.510746 154.650345,59.291000 154.530319,58.953720 
	C154.949066,58.978661 155.067963,59.121140 155.338486,59.497059 
z"/>
<path fill="#F48B7D" opacity="1.000000" stroke="none" 
	d="
M403.268738,149.241531 
	C403.112274,149.496689 402.846313,149.654495 402.580383,149.812302 
	C402.541107,149.561127 402.501801,149.309937 402.702332,149.003143 
	C402.942169,148.947525 403.159302,149.144180 403.268738,149.241531 
z"/>
</svg>