<svg xmlns="http://www.w3.org/2000/svg" xmlns:xlink="http://www.w3.org/1999/xlink" width="500" zoomAndPan="magnify" viewBox="0 0 375 374.999991" height="500" preserveAspectRatio="xMidYMid meet" version="1.0"><defs><clipPath id="fc3deba049"><path d="M 28.125 0 L 345 0 L 345 375 L 28.125 375 Z M 28.125 0 " clip-rule="nonzero"/></clipPath><clipPath id="7a1e13988f"><path d="M 28.125 19 L 324 19 L 324 375 L 28.125 375 Z M 28.125 19 " clip-rule="nonzero"/></clipPath></defs><path fill="#000000" d="M 341.820312 300.269531 L 316.574219 256.625 C 312.996094 250.441406 305.082031 248.328125 298.898438 251.902344 L 277.074219 264.527344 C 261.957031 273.273438 244.660156 277.894531 227.054688 277.894531 C 171.863281 277.894531 126.960938 232.992188 126.960938 177.800781 C 126.960938 153.742188 135.496094 131.644531 149.691406 114.363281 C 165.707031 103.480469 185.027344 97.109375 205.808594 97.109375 C 223.414062 97.109375 240.710938 101.734375 255.828125 110.476562 L 277.652344 123.101562 C 282.480469 125.894531 288.355469 125.207031 292.40625 121.832031 L 292.40625 121.828125 C 292.703125 121.582031 292.984375 121.324219 293.261719 121.050781 L 313.707031 102.378906 C 314.820312 101.441406 315.800781 100.308594 316.574219 98.976562 L 341.820312 55.332031 C 345.398438 49.148438 343.285156 41.234375 337.101562 37.65625 L 315.277344 25.03125 C 288.566406 9.578125 258.058594 1.410156 227.054688 1.410156 C 176.152344 1.410156 130.226562 23.09375 98 57.699219 C 56.3125 89.988281 29.417969 140.511719 29.417969 197.207031 C 29.417969 294.464844 108.546875 373.59375 205.808594 373.59375 C 236.808594 373.59375 267.316406 365.425781 294.03125 349.972656 L 315.855469 337.347656 C 316.519531 336.964844 317.128906 336.519531 317.699219 336.042969 L 317.734375 336.011719 C 317.957031 335.824219 318.171875 335.625 318.378906 335.425781 L 338.96875 316.621094 C 339.203125 316.417969 339.429688 316.210938 339.652344 315.996094 L 339.835938 315.824219 L 339.832031 315.820312 C 343.820312 311.773438 344.804688 305.425781 341.820312 300.269531 Z M 341.820312 300.269531 " fill-opacity="1" fill-rule="nonzero"/><g clip-path="url(#fc3deba049)"><path fill="#000000" d="M 205.808594 374.886719 C 107.835938 374.886719 28.125 295.179688 28.125 197.207031 C 28.125 169.285156 34.449219 142.542969 46.921875 117.722656 C 58.792969 94.089844 76.152344 73.003906 97.125 56.738281 C 113.589844 39.082031 133.058594 25.171875 154.996094 15.398438 C 177.75 5.257812 201.992188 0.117188 227.054688 0.117188 C 258.285156 0.117188 289.015625 8.347656 315.925781 23.914062 L 337.75 36.539062 C 344.542969 40.46875 346.871094 49.1875 342.941406 55.980469 L 317.695312 99.625 C 316.882812 101.027344 315.828125 102.28125 314.5625 103.351562 L 294.152344 121.988281 C 293.859375 122.28125 293.550781 122.558594 293.238281 122.824219 C 288.664062 126.632812 282.140625 127.195312 277.003906 124.222656 L 255.179688 111.597656 C 240.257812 102.964844 223.1875 98.402344 205.808594 98.402344 C 186.027344 98.402344 166.933594 104.253906 150.574219 115.328125 C 136.179688 132.917969 128.253906 155.097656 128.253906 177.800781 C 128.253906 232.28125 172.574219 276.601562 227.054688 276.601562 C 244.433594 276.601562 261.507812 272.039062 276.429688 263.410156 L 298.25 250.785156 C 305.042969 246.855469 313.765625 249.183594 317.691406 255.976562 L 342.941406 299.621094 C 346.109375 305.101562 345.25 312.066406 340.859375 316.617188 C 340.816406 316.675781 340.765625 316.730469 340.707031 316.78125 L 340.523438 316.953125 C 340.292969 317.175781 340.054688 317.394531 339.820312 317.59375 L 319.25 336.382812 C 319.03125 336.59375 318.804688 336.800781 318.589844 336.984375 L 318.570312 337 C 318.535156 337.035156 318.5 337.0625 318.460938 337.089844 C 317.804688 337.632812 317.164062 338.085938 316.5 338.46875 L 294.679688 351.09375 C 267.769531 366.660156 237.035156 374.886719 205.808594 374.886719 Z M 227.054688 2.707031 C 178.707031 2.707031 132.015625 23.070312 98.945312 58.578125 C 98.898438 58.632812 98.847656 58.679688 98.792969 58.722656 C 55.527344 92.234375 30.710938 142.707031 30.710938 197.207031 C 30.710938 293.753906 109.261719 372.300781 205.808594 372.300781 C 236.582031 372.300781 266.867188 364.191406 293.382812 348.855469 L 315.207031 336.230469 C 315.761719 335.90625 316.304688 335.523438 316.867188 335.050781 C 316.878906 335.039062 316.894531 335.027344 316.90625 335.019531 C 317.082031 334.871094 317.269531 334.699219 317.476562 334.496094 L 338.09375 315.664062 C 338.105469 315.652344 338.121094 315.640625 338.132812 315.632812 C 338.324219 315.46875 338.527344 315.285156 338.75 315.066406 L 338.851562 314.976562 C 338.867188 314.953125 338.886719 314.933594 338.910156 314.910156 C 342.578125 311.191406 343.316406 305.4375 340.703125 300.917969 L 315.453125 257.273438 C 312.238281 251.714844 305.101562 249.808594 299.546875 253.023438 L 277.722656 265.648438 C 262.410156 274.507812 244.886719 279.1875 227.054688 279.1875 C 171.148438 279.1875 125.667969 233.707031 125.667969 177.800781 C 125.667969 154.4375 133.84375 131.617188 148.691406 113.542969 C 148.769531 113.449219 148.863281 113.363281 148.964844 113.292969 C 165.789062 101.859375 185.445312 95.816406 205.808594 95.816406 C 223.640625 95.816406 241.160156 100.5 256.476562 109.359375 L 278.300781 121.980469 C 282.503906 124.414062 287.839844 123.953125 291.578125 120.835938 C 291.582031 120.832031 291.585938 120.828125 291.59375 120.824219 C 291.851562 120.609375 292.105469 120.375 292.347656 120.132812 C 292.359375 120.121094 292.375 120.109375 292.386719 120.09375 L 312.835938 101.425781 C 312.847656 101.414062 312.863281 101.402344 312.875 101.390625 C 313.921875 100.507812 314.789062 99.476562 315.453125 98.328125 L 340.703125 54.683594 C 343.917969 49.128906 342.011719 41.992188 336.453125 38.777344 L 314.628906 26.152344 C 288.113281 10.8125 257.828125 2.707031 227.054688 2.707031 Z M 227.054688 2.707031 " fill-opacity="1" fill-rule="nonzero"/></g><path fill="#ffffff" d="M 205.808594 373.59375 C 108.546875 373.59375 29.417969 294.464844 29.417969 197.207031 C 29.417969 99.945312 108.546875 20.816406 205.808594 20.816406 C 236.808594 20.816406 267.316406 28.984375 294.03125 44.4375 L 315.855469 57.0625 C 322.039062 60.640625 324.152344 68.554688 320.574219 74.738281 L 295.328125 118.382812 C 291.75 124.566406 283.835938 126.679688 277.652344 123.101562 L 255.828125 110.476562 C 240.710938 101.734375 223.414062 97.109375 205.808594 97.109375 C 150.617188 97.109375 105.714844 142.011719 105.714844 197.207031 C 105.714844 252.398438 150.617188 297.300781 205.808594 297.300781 C 223.414062 297.300781 240.710938 292.675781 255.828125 283.933594 L 277.652344 271.308594 C 283.835938 267.730469 291.75 269.84375 295.328125 276.027344 L 320.574219 319.675781 C 324.152344 325.859375 322.039062 333.769531 315.855469 337.347656 L 294.03125 349.972656 C 267.316406 365.425781 236.808594 373.59375 205.808594 373.59375 Z M 205.808594 373.59375 " fill-opacity="1" fill-rule="nonzero"/><g clip-path="url(#7a1e13988f)"><path fill="#000000" d="M 205.808594 374.886719 C 107.832031 374.886719 28.125 295.179688 28.125 197.207031 C 28.125 99.230469 107.832031 19.523438 205.808594 19.523438 C 237.035156 19.523438 267.769531 27.75 294.679688 43.316406 L 316.503906 55.941406 C 319.792969 57.84375 322.144531 60.917969 323.125 64.589844 C 324.105469 68.261719 323.597656 72.09375 321.695312 75.386719 L 296.445312 119.03125 C 292.515625 125.820312 283.796875 128.152344 277.003906 124.222656 L 255.179688 111.597656 C 240.257812 102.964844 223.1875 98.402344 205.808594 98.402344 C 151.328125 98.402344 107.007812 142.726562 107.007812 197.207031 C 107.007812 251.683594 151.328125 296.007812 205.808594 296.007812 C 223.1875 296.007812 240.257812 291.445312 255.179688 282.8125 L 277.003906 270.1875 C 280.292969 268.285156 284.128906 267.777344 287.800781 268.757812 C 291.472656 269.738281 294.542969 272.089844 296.445312 275.382812 L 321.695312 319.027344 C 325.625 325.816406 323.292969 334.539062 316.503906 338.46875 L 294.679688 351.09375 C 267.769531 366.660156 237.035156 374.886719 205.808594 374.886719 Z M 205.808594 22.109375 C 109.257812 22.109375 30.710938 100.65625 30.710938 197.207031 C 30.710938 293.753906 109.257812 372.300781 205.808594 372.300781 C 236.582031 372.300781 266.867188 364.195312 293.382812 348.855469 L 315.207031 336.230469 C 320.765625 333.015625 322.667969 325.878906 319.457031 320.320312 L 294.207031 276.675781 C 292.648438 273.984375 290.136719 272.058594 287.132812 271.257812 C 284.128906 270.457031 280.992188 270.871094 278.300781 272.429688 L 256.476562 285.054688 C 241.160156 293.910156 223.640625 298.59375 205.808594 298.59375 C 149.902344 298.59375 104.421875 253.109375 104.421875 197.207031 C 104.421875 141.300781 149.902344 95.816406 205.808594 95.816406 C 223.640625 95.816406 241.160156 100.5 256.476562 109.359375 L 278.300781 121.980469 C 283.855469 125.195312 290.992188 123.292969 294.207031 117.734375 L 319.457031 74.089844 C 321.011719 71.398438 321.429688 68.261719 320.625 65.253906 C 319.824219 62.25 317.898438 59.738281 315.207031 58.179688 L 293.382812 45.558594 C 266.867188 30.21875 236.582031 22.109375 205.808594 22.109375 Z M 205.808594 22.109375 " fill-opacity="1" fill-rule="nonzero"/></g><path fill="#6c6cc4" d="M 337.101562 37.65625 L 315.277344 25.03125 C 288.566406 9.578125 258.058594 1.410156 227.054688 1.410156 C 176.152344 1.410156 130.226562 23.09375 98 57.699219 C 127.832031 34.589844 165.238281 20.816406 205.808594 20.816406 C 236.808594 20.816406 267.316406 28.984375 294.03125 44.4375 L 315.855469 57.0625 C 318.707031 58.710938 320.683594 61.292969 321.644531 64.191406 L 343.152344 45.660156 C 342.324219 42.40625 340.238281 39.472656 337.101562 37.65625 Z M 337.101562 37.65625 " fill-opacity="1" fill-rule="nonzero"/><path fill="#000000" d="M 321.644531 65.484375 C 321.527344 65.484375 321.410156 65.472656 321.296875 65.4375 C 320.882812 65.324219 320.550781 65.007812 320.414062 64.597656 C 319.515625 61.882812 317.664062 59.605469 315.207031 58.183594 L 293.382812 45.558594 C 266.867188 30.21875 236.582031 22.109375 205.808594 22.109375 C 166.71875 22.109375 129.714844 34.769531 98.792969 58.722656 C 98.261719 59.132812 97.5 59.066406 97.042969 58.570312 C 96.589844 58.074219 96.59375 57.308594 97.054688 56.816406 C 113.53125 39.121094 133.027344 25.1875 154.996094 15.398438 C 177.75 5.257812 201.992188 0.117188 227.054688 0.117188 C 258.285156 0.117188 289.015625 8.347656 315.925781 23.914062 L 337.75 36.539062 C 341.085938 38.46875 343.453125 41.59375 344.40625 45.339844 C 344.527344 45.816406 344.367188 46.320312 343.996094 46.640625 L 322.488281 65.171875 C 322.25 65.378906 321.949219 65.484375 321.644531 65.484375 Z M 205.808594 19.523438 C 237.039062 19.523438 267.769531 27.75 294.679688 43.316406 L 316.503906 55.941406 C 318.964844 57.367188 320.929688 59.492188 322.160156 62.039062 L 341.679688 45.222656 C 340.789062 42.496094 338.957031 40.226562 336.453125 38.777344 L 314.632812 26.152344 C 288.113281 10.8125 257.828125 2.707031 227.054688 2.707031 C 184.03125 2.707031 142.320312 18.832031 110.351562 47.40625 C 121.980469 39.964844 134.40625 33.921875 147.453125 29.371094 C 166.183594 22.835938 185.820312 19.523438 205.808594 19.523438 Z M 205.808594 19.523438 " fill-opacity="1" fill-rule="nonzero"/><path fill="#6c6cc4" d="M 321.644531 64.191406 C 322.765625 67.578125 322.5 71.40625 320.574219 74.738281 L 295.328125 118.382812 C 294.746094 119.382812 294.042969 120.269531 293.261719 121.050781 L 313.707031 102.378906 C 314.820312 101.441406 315.804688 100.308594 316.574219 98.976562 L 341.820312 55.332031 C 343.582031 52.285156 343.960938 48.820312 343.152344 45.660156 Z M 321.644531 64.191406 " fill-opacity="1" fill-rule="nonzero"/><path fill="#000000" d="M 293.261719 122.34375 C 292.917969 122.34375 292.578125 122.210938 292.324219 121.945312 C 291.839844 121.4375 291.847656 120.632812 292.347656 120.136719 C 293.089844 119.394531 293.714844 118.585938 294.207031 117.734375 L 319.453125 74.089844 C 321.113281 71.222656 321.460938 67.765625 320.414062 64.597656 C 320.25 64.101562 320.402344 63.554688 320.796875 63.210938 L 342.308594 44.679688 C 342.648438 44.386719 343.113281 44.292969 343.542969 44.425781 C 343.96875 44.5625 344.296875 44.90625 344.40625 45.339844 C 345.332031 48.96875 344.8125 52.746094 342.941406 55.980469 L 317.695312 99.625 C 316.882812 101.027344 315.828125 102.277344 314.5625 103.351562 L 294.132812 122.003906 C 293.882812 122.230469 293.574219 122.34375 293.261719 122.34375 Z M 323.121094 64.625 C 324.082031 68.257812 323.574219 72.132812 321.695312 75.382812 L 299.683594 113.433594 L 312.835938 101.421875 C 312.847656 101.410156 312.863281 101.402344 312.875 101.390625 C 313.921875 100.507812 314.789062 99.476562 315.453125 98.328125 L 340.703125 54.683594 C 341.859375 52.679688 342.386719 50.421875 342.242188 48.152344 Z M 323.121094 64.625 " fill-opacity="1" fill-rule="nonzero"/><path fill="#6c6cc4" d="M 298.898438 251.902344 L 277.078125 264.527344 C 261.957031 273.273438 244.660156 277.894531 227.054688 277.894531 C 171.863281 277.894531 126.960938 232.992188 126.960938 177.800781 C 126.960938 153.742188 135.496094 131.644531 149.691406 114.363281 C 123.171875 132.386719 105.714844 162.792969 105.714844 197.207031 C 105.714844 252.398438 150.617188 297.300781 205.808594 297.300781 C 223.414062 297.300781 240.710938 292.675781 255.828125 283.933594 L 277.652344 271.308594 C 280.78125 269.5 284.347656 269.148438 287.574219 270.042969 L 308.796875 250.628906 C 305.578125 249.746094 302.015625 250.097656 298.898438 251.902344 Z M 298.898438 251.902344 " fill-opacity="1" fill-rule="nonzero"/><path fill="#000000" d="M 205.808594 298.59375 C 149.902344 298.59375 104.421875 253.109375 104.421875 197.207031 C 104.421875 163.617188 121.074219 132.25 148.964844 113.292969 C 149.496094 112.933594 150.210938 113.015625 150.648438 113.492188 C 151.082031 113.96875 151.097656 114.6875 150.691406 115.183594 C 136.222656 132.796875 128.253906 155.035156 128.253906 177.800781 C 128.253906 232.28125 172.578125 276.601562 227.054688 276.601562 C 244.433594 276.601562 261.507812 272.039062 276.429688 263.410156 L 298.25 250.785156 C 301.570312 248.863281 305.433594 248.367188 309.140625 249.382812 C 309.59375 249.507812 309.945312 249.867188 310.054688 250.328125 C 310.164062 250.785156 310.019531 251.265625 309.671875 251.585938 L 288.449219 270.996094 C 288.121094 271.296875 287.660156 271.40625 287.230469 271.289062 C 284.191406 270.449219 281.019531 270.855469 278.300781 272.429688 L 256.476562 285.050781 C 241.160156 293.910156 223.640625 298.59375 205.808594 298.59375 Z M 143.285156 120.761719 C 120.421875 139.476562 107.007812 167.449219 107.007812 197.207031 C 107.007812 251.683594 151.328125 296.007812 205.808594 296.007812 C 223.1875 296.007812 240.257812 291.445312 255.179688 282.8125 L 277.003906 270.1875 C 280.121094 268.386719 283.71875 267.835938 287.214844 268.617188 L 305.960938 251.472656 C 303.738281 251.355469 301.519531 251.878906 299.546875 253.023438 L 277.722656 265.648438 C 262.410156 274.507812 244.886719 279.1875 227.054688 279.1875 C 171.148438 279.1875 125.667969 233.707031 125.667969 177.800781 C 125.667969 157.449219 131.871094 137.511719 143.285156 120.761719 Z M 143.285156 120.761719 " fill-opacity="1" fill-rule="nonzero"/><path fill="#6c6cc4" d="M 341.820312 300.269531 L 316.574219 256.625 C 314.800781 253.558594 311.960938 251.496094 308.796875 250.628906 L 287.574219 270.042969 C 290.730469 270.914062 293.558594 272.972656 295.328125 276.027344 L 320.574219 319.675781 C 323.605469 324.917969 322.539062 331.390625 318.378906 335.425781 L 338.96875 316.621094 C 339.203125 316.417969 339.429688 316.210938 339.652344 315.996094 L 339.835938 315.824219 L 339.832031 315.820312 C 343.820312 311.773438 344.804688 305.425781 341.820312 300.269531 Z M 341.820312 300.269531 " fill-opacity="1" fill-rule="nonzero"/><path fill="#000000" d="M 318.378906 336.71875 C 318.03125 336.71875 317.6875 336.582031 317.433594 336.3125 C 316.949219 335.796875 316.96875 334.988281 317.476562 334.496094 C 321.316406 330.773438 322.128906 324.945312 319.453125 320.320312 L 294.207031 276.675781 C 292.671875 274.019531 290.191406 272.109375 287.230469 271.289062 C 286.777344 271.164062 286.425781 270.800781 286.316406 270.34375 C 286.207031 269.886719 286.355469 269.40625 286.703125 269.085938 L 307.925781 249.675781 C 308.25 249.375 308.710938 249.265625 309.140625 249.382812 C 312.773438 250.378906 315.808594 252.71875 317.695312 255.976562 L 342.941406 299.621094 C 346.109375 305.101562 345.25 312.066406 340.859375 316.617188 C 340.816406 316.675781 340.765625 316.730469 340.707031 316.78125 L 340.523438 316.949219 C 340.292969 317.175781 340.054688 317.394531 339.820312 317.589844 L 319.25 336.378906 C 319.003906 336.605469 318.6875 336.71875 318.378906 336.71875 Z M 290.023438 269.554688 C 292.710938 270.773438 294.945312 272.785156 296.445312 275.378906 L 321.695312 319.027344 C 323.527344 322.191406 324.019531 325.820312 323.273438 329.199219 L 338.09375 315.664062 C 338.105469 315.652344 338.121094 315.640625 338.132812 315.632812 C 338.324219 315.46875 338.527344 315.285156 338.75 315.066406 L 338.851562 314.976562 C 338.867188 314.953125 338.890625 314.929688 338.910156 314.910156 C 342.578125 311.191406 343.316406 305.433594 340.703125 300.917969 L 315.453125 257.269531 C 314.03125 254.8125 311.800781 252.988281 309.125 252.082031 Z M 290.023438 269.554688 " fill-opacity="1" fill-rule="nonzero"/></svg>